<?xml version="1.0" standalone="no"?>
<!DOCTYPE svg PUBLIC "-//W3C//DTD SVG 20010904//EN"
 "http://www.w3.org/TR/2001/REC-SVG-20010904/DTD/svg10.dtd">
<svg version="1.0" xmlns="http://www.w3.org/2000/svg"
 width="180.000000pt" height="180.000000pt" viewBox="0 0 180.000000 180.000000"
 preserveAspectRatio="xMidYMid meet">

<g transform="translate(0.000000,180.000000) scale(0.100000,-0.100000)"
fill="#000000" stroke="none">
<path d="M235 1307 c-76 -114 -115 -253 -115 -410 0 -130 21 -221 80 -342 81
-165 190 -274 355 -355 122 -59 212 -80 348 -80 230 0 444 99 587 270 l50 62
-152 110 c-84 60 -159 112 -166 115 -7 3 -30 -11 -51 -31 -38 -37 -68 -45 -89
-24 -19 19 -14 38 19 75 16 19 29 39 27 43 -3 9 -181 140 -185 136 -1 -1 -14
-67 -28 -146 -33 -181 -32 -178 -57 -186 -15 -5 -27 -1 -38 14 -16 19 -15 32
12 194 15 95 28 176 28 180 0 4 -41 36 -92 72 l-91 65 -26 -19 c-14 -10 -55
-48 -91 -84 l-64 -66 117 -118 c64 -66 117 -122 117 -126 0 -4 -5 -16 -10 -27
-22 -39 -51 -22 -187 113 -102 101 -133 138 -133 158 0 19 25 50 99 124 l100
99 -77 57 c-42 31 -116 84 -164 118 l-88 62 -35 -53z"/>
</g>
</svg>
